<?xml version="1.0" standalone="no"?>
<!DOCTYPE svg PUBLIC "-//W3C//DTD SVG 20010904//EN"
 "http://www.w3.org/TR/2001/REC-SVG-20010904/DTD/svg10.dtd">
<svg version="1.0" xmlns="http://www.w3.org/2000/svg"
 width="2048.000000pt" height="2048.000000pt" viewBox="0 0 2048.000000 2048.000000"
 preserveAspectRatio="xMidYMid meet">
<metadata>
Created by potrace 1.11, written by Peter Selinger 2001-2013
</metadata>
<g transform="translate(0.000000,2048.000000) scale(0.100000,-0.100000)"
fill="#000000" stroke="none">
<path d="M0 10240 l0 -10240 10240 0 10240 0 0 10240 0 10240 -10240 0 -10240
0 0 -10240z m10333 8155 c130 -17 263 -53 352 -94 56 -26 241 -131 623 -353
176 -103 320 -176 418 -214 221 -84 451 -150 654 -188 74 -13 151 -27 170 -31
19 -4 298 -10 620 -14 l585 -8 100 -26 c244 -63 475 -191 653 -361 111 -107
156 -170 315 -446 336 -585 342 -595 458 -740 208 -261 483 -519 719 -674 52
-34 174 -108 270 -163 612 -350 596 -340 708 -447 189 -181 326 -417 400 -686
l26 -95 7 -565 c7 -600 10 -647 63 -896 52 -241 125 -472 215 -674 44 -99 113
-223 371 -670 59 -102 123 -217 143 -255 134 -269 156 -692 51 -1016 -34 -107
-49 -133 -418 -774 -96 -166 -117 -207 -178 -350 -66 -153 -138 -391 -183
-600 -53 -245 -57 -294 -65 -900 -7 -532 -9 -575 -28 -651 -75 -289 -261 -588
-471 -756 -44 -35 -166 -113 -273 -174 -106 -62 -281 -162 -388 -224 -335
-194 -453 -283 -705 -535 -268 -267 -345 -372 -590 -800 -314 -548 -343 -590
-488 -713 -190 -161 -388 -265 -612 -324 -75 -20 -117 -22 -635 -28 -322 -5
-595 -13 -650 -20 -206 -26 -495 -95 -700 -168 -230 -82 -310 -119 -555 -262
-477 -276 -567 -327 -630 -356 -88 -40 -233 -80 -350 -95 -127 -16 -405 -6
-515 19 -100 24 -234 71 -293 105 -23 13 -134 77 -247 142 -418 241 -537 308
-600 337 -281 130 -623 229 -948 274 -91 13 -243 18 -677 24 -525 6 -565 8
-640 28 -276 73 -553 239 -725 436 -79 90 -74 83 -430 701 -175 305 -272 434
-490 659 -74 76 -180 178 -236 226 -184 159 -251 201 -919 585 -197 113 -252
154 -356 261 -176 184 -297 399 -366 652 l-26 97 -7 580 c-6 458 -11 600 -23
675 -70 419 -187 775 -350 1065 -40 72 -127 222 -192 335 -196 338 -243 429
-280 542 -85 261 -84 613 1 873 33 99 53 140 164 330 203 350 364 634 387 685
98 216 182 476 232 715 53 257 53 259 61 870 l7 580 26 100 c65 249 200 489
377 666 123 124 116 119 785 502 282 161 456 295 690 531 215 217 344 386 496
653 196 342 298 517 335 578 171 279 491 502 859 597 75 20 118 21 665 28 614
8 608 7 865 60 201 41 497 135 667 211 108 49 193 95 483 264 481 280 506 292
675 334 168 41 359 50 543 26z"/>
<path d="M9815 16409 c-865 -46 -1651 -251 -2420 -629 -1409 -694 -2495 -1888
-3062 -3370 -447 -1168 -520 -2513 -203 -3735 326 -1254 1042 -2382 2038
-3208 996 -828 2174 -1308 3477 -1418 191 -16 764 -17 960 -1 1602 131 3066
856 4133 2047 639 713 1097 1547 1356 2469 97 343 162 706 208 1156 17 167 17
843 0 1010 -41 405 -93 705 -177 1035 -501 1957 -1943 3556 -3846 4266 -785
292 -1632 422 -2464 378z m855 -743 c703 -78 1261 -239 1875 -541 1070 -527
1934 -1385 2470 -2455 325 -648 509 -1317 565 -2052 21 -276 12 -722 -21
-1018 -39 -354 -133 -776 -252 -1125 -315 -927 -871 -1752 -1613 -2391 -851
-733 -1888 -1181 -3009 -1300 -203 -21 -731 -30 -922 -15 -221 18 -401 39
-563 67 -961 168 -1822 568 -2590 1204 -176 146 -551 525 -700 708 -605 743
-987 1562 -1159 2482 -123 661 -120 1367 8 2035 88 456 241 917 441 1330 723
1492 2081 2580 3685 2954 261 61 561 106 905 135 117 10 743 -3 880 -18z"/>
<path d="M11815 12936 c-57 -26 -103 -92 -270 -381 -92 -159 -184 -319 -205
-355 -21 -36 -90 -155 -153 -265 -173 -301 -444 -772 -487 -845 -44 -75 -277
-480 -470 -815 -73 -126 -149 -259 -170 -295 -21 -36 -79 -137 -130 -225 -99
-171 -134 -216 -192 -246 -75 -39 -168 -18 -235 53 -17 18 -198 284 -402 590
-229 343 -386 569 -408 587 -84 69 -185 93 -288 68 -84 -21 -64 -7 -475 -332
-91 -72 -239 -189 -328 -260 -187 -148 -234 -196 -258 -267 -23 -70 -16 -187
16 -247 25 -50 81 -109 895 -941 110 -113 366 -376 569 -585 615 -633 642
-658 710 -684 109 -41 233 -27 318 34 26 19 715 759 1531 1645 1109 1204 1493
1626 1516 1669 58 110 76 258 45 376 -17 68 3 30 -367 685 -154 272 -320 567
-370 655 -197 350 -225 385 -314 392 -28 2 -61 -3 -78 -11z"/>
</g>
</svg>
